<?xml version="1.0" encoding="UTF-8" standalone="no"?>
<!-- Created with Inkscape (http://www.inkscape.org/) -->
<svg id="svg4603" xmlns:rdf="http://www.w3.org/1999/02/22-rdf-syntax-ns#" xmlns="http://www.w3.org/2000/svg" height="228.91mm" width="224.4mm" version="1.1" xmlns:cc="http://creativecommons.org/ns#" xmlns:dc="http://purl.org/dc/elements/1.1/" viewBox="0 0 224.39539 228.90776">
 <metadata id="metadata4600">
  <rdf:RDF>
   <cc:Work rdf:about="">
    <dc:format>image/svg+xml</dc:format>
    <dc:type rdf:resource="http://purl.org/dc/dcmitype/StillImage"/>
    <dc:title/>
   </cc:Work>
  </rdf:RDF>
 </metadata>
 <g id="layer3" stroke-width="0">
  <circle id="path5194" cx="114.15" cy="117.4" r="90" fill="#4a90e2"/>
  <path id="path5200" fill="#fff" d="m139.85 89.435a6.0476 6.4256 0 0 1 -5.9618 6.4249 6.0476 6.4256 0 0 1 -6.131 -6.2425 6.0476 6.4256 0 0 1 5.7877 -6.6022 6.0476 6.4256 0 0 1 6.2954 6.055"/>
 </g>
 <g id="layer2">
  <path id="path4632-3" fill="#fff" d="m80.834 178.15c-6.9784-2.0566-8.9822-9.9925-8.6983-16.426-2.4911-30.803-0.67272-61.724-0.45587-92.566 0.19304-6.304 3.7406-13.562 10.719-14.239 10.137-1.5263 18.31 5.7852 26.784 9.9971 19.937 11.101 39.15 23.433 58.77 35.075 6.0275 4.1999 14.271 9.3792 13.415 17.829-1.8992 8.1896-10.313 12.105-16.494 16.771-10.787 6.6073-21.651 13.092-32.475 19.641-8.2492 4.6418-16.532 9.1981-24.513 14.282-6.6176 3.3644-12.98 7.4976-20.105 9.688-2.2601 0.57408-4.7241 0.80919-6.9466-0.051z"/>
 </g>
</svg>
