<?xml version="1.0" encoding="utf-8"?>
<!-- Generator: Adobe Illustrator 21.1.0, SVG Export Plug-In . SVG Version: 6.00 Build 0)  -->
<svg version="1.1"
	 id="galaxia" inkscape:version="1.3.2 (091e20e, 2023-11-25, custom)" sodipodi:docname="galaxia.svg" xmlns:inkscape="http://www.inkscape.org/namespaces/inkscape" xmlns:sodipodi="http://sodipodi.sourceforge.net/DTD/sodipodi-0.dtd" xmlns:svg="http://www.w3.org/2000/svg"
	 xmlns="http://www.w3.org/2000/svg" xmlns:xlink="http://www.w3.org/1999/xlink" x="0px" y="0px" viewBox="0 0 162.1 255.3"
	 style="enable-background:new 0 0 162.1 255.3;" xml:space="preserve">
<style type="text/css">
	.st0{fill:none;stroke:#8A8989;}
	.st1{fill:#B8E986;}
	.st2{fill:url(#SVGID_1_);}
	.st3{fill:url(#Path-10_1_);}
	.st4{fill:#2E5E95;}
	.st5{fill:url(#rect3_2_);}
	.st6{fill:url(#rect2_1_);}
	.st7{fill:url(#rect2-2_1_);}
	.st8{fill:#4A4A4A;}
	.st9{fill:#333333;}
	.st10{fill:#0B356F;}
	.st11{fill:#101010;stroke:#FFFFFF;stroke-width:1.603;}
	.st12{fill:#111111;}
	.st13{fill:url(#screen-reflect_1_);}
	.st14{fill:#101010;}
	.st15{fill:url(#rect1-3-6_2_);}
	.st16{fill:#6AA2F0;}
	.st17{fill:url(#front_1_);}
	.st18{fill:url(#button-sys-top_1_);}
	.st19{fill:url(#rect1-3-6-8_2_);}
	.st20{fill:#0B356F;fill-opacity:0;stroke:#FFFFFF;stroke-width:0.5;stroke-linejoin:round;}
	.st21{fill:url(#path11_1_);}
	.st22{fill:url(#path11-9_1_);}
	.st23{fill:url(#path11-7_1_);}
	.st24{fill:url(#path11-5_1_);}
	.st25{fill:url(#path11-78_1_);}
	.st26{fill:url(#rect12_1_);}
	.st27{fill:url(#rect12-9_1_);}
	.st28{fill:url(#rect12-0_1_);}
	.st29{fill:url(#rect12-5_1_);}
	.st30{fill:url(#rect12-91_1_);}
	.st31{fill:url(#rect12-2_1_);}
	.st32{fill:url(#rect12-00_1_);}
	.st33{fill:url(#rect12-59_1_);}
	.st34{fill:url(#rect12-50_1_);}
	.st35{fill:url(#rect12-8_1_);}
	.st36{fill:url(#rect12-01_1_);}
	.st37{fill:url(#rect12-502_1_);}
	.st38{fill:url(#rect12-57_1_);}
	.st39{fill:url(#rect12-3_1_);}
	.st40{fill:url(#rect12-4_1_);}
	.st41{fill:url(#rect12-31_1_);}
	.st42{fill:url(#rect12-5023_1_);}
	.st43{fill:url(#rect12-010_1_);}
	.st44{fill:url(#rect12-82_1_);}
	.st45{fill:url(#rect12-915_1_);}
	.st46{fill:#FFFFFF;}
	.st47{font-family:'Arial';}
	.st48{font-size:15.8224px;}
	.st49{font-size:5.356px;}
	.st50{fill:none;stroke:#FFFFFF;stroke-width:0.5;stroke-miterlimit:10;}
	.st51{fill:none;stroke:#FFFFFF;stroke-width:0.2;stroke-miterlimit:10;}
</style>
<g id="led-component">
	
		<path id="led-wire-4" inkscape:original-d="m 138.99653,85.032809 c 0,1.413629 0,2.827256 0,4.240885" inkscape:path-effect="#path-effect8" class="st0" d="
		M85,21.5c0,1.5,0,3,0,4.4"/>
	
		<path id="led-wire-3" inkscape:original-d="m 138.99653,85.032809 c 0,1.413629 0,2.827256 0,4.240885" inkscape:path-effect="#path-effect8-2" class="st0" d="
		M92,21.5c0,1.5,0,3,0,4.4"/>
	
		<path id="led-wire-2" inkscape:original-d="m 138.99653,85.032809 c 0,1.413629 0,2.827256 0,4.240885" inkscape:path-effect="#path-effect8-5" class="st0" d="
		M88.5,21.5c0,1.5,0,3,0,4.4"/>
	
		<path id="led-wire-1" inkscape:original-d="m 138.99653,85.032809 c 0,1.413629 0,2.827256 0,4.240885" inkscape:path-effect="#path-effect8-1" class="st0" d="
		M95.4,21.5c0,1.5,0,3,0,4.4"/>
	<path id="led" inkscape:label="led" sodipodi:nodetypes="cccccc" class="st1" d="M90,0c-3.8,0.1-6.7,3.4-6.7,7.2
		c0,4.1-0.1,8.7-0.1,13c0,0.9,0.8,1.7,1.7,1.7h10.7c0.9,0,1.7-0.8,1.7-1.7L97.1,6.9C97.1,3,93.9-0.1,90,0z"/>
	<g id="led-reflect">
		<linearGradient id="SVGID_1_" gradientUnits="userSpaceOnUse" x1="90.3304" y1="2.7957" x2="95.3505" y2="7.6366">
			<stop  offset="0" style="stop-color:#FFFFFF"/>
			<stop  offset="0.9991" style="stop-color:#FFFFFF;stop-opacity:0"/>
		</linearGradient>
		<path class="st2" d="M94.4,8.5c-0.6,0-1-0.4-1-1c0-1.6-1.3-2.9-2.9-2.9c-0.6,0-1-0.4-1-1s0.4-1,1-1c2.7,0,4.9,2.2,4.9,4.9
			C95.4,8.1,94.9,8.5,94.4,8.5z"/>
	</g>
	<g id="led-filament">
		<g id="E.03.f---Concours---QuickPI-_x28_connection-error_x29_" transform="translate(-315, -448)">
			<g id="Group-11" transform="translate(302, 419)">
				
					<linearGradient id="Path-10_1_" gradientUnits="userSpaceOnUse" x1="-569.5046" y1="659.9916" x2="-569.5046" y2="659.3275" gradientTransform="matrix(17 0 0 -11.6073 9784.9883 7700.646)">
					<stop  offset="0" style="stop-color:#2E5E95;stop-opacity:0.4"/>
					<stop  offset="1" style="stop-color:#2E5E95;stop-opacity:0"/>
				</linearGradient>
				<path id="Path-10" class="st3" d="M97.8,46.7v-1.2c0-0.5,0.2-0.9,0.5-1.2c0.3-0.3,0.5-0.8,0.5-1.2v-2.5c0-0.4,0.3-0.7,0.7-0.7
					h0.2c0.2,0,0.4,0.2,0.4,0.4c0,0.2,0.2,0.4,0.4,0.4h5.5c0.2,0,0.4-0.2,0.4-0.4c0-0.2,0.2-0.4,0.4-0.4h0.4c0.5,0,0.8,0.4,0.8,0.8
					v2.3c0,0.5,0.2,0.9,0.5,1.2s0.5,0.8,0.5,1.2v1.2c0,0.5-0.4,0.9-0.9,0.9h0c-0.5,0-0.9-0.4-0.9-0.9c0-0.6-0.2-1.1-0.6-1.5
					l-0.3-0.3c-0.6-0.6-0.7-1.4-0.4-2.1l0.3-0.7c0.1-0.2,0-0.4-0.2-0.4c0,0-0.1,0-0.1,0c-0.3,0-0.6,0.1-0.9,0.2l-2.6,1.5
					c-0.7,0.4-1.4,0.9-1.9,1.5l-0.3,0.3c-0.4,0.4-0.6,0.9-0.6,1.5c0,0.5-0.4,0.9-0.9,0.9h0C98.2,47.6,97.8,47.2,97.8,46.7z"/>
			</g>
		</g>
	</g>
</g>
<g id="board">
	<path id="rect3_1_" class="st4" d="M24.5,20.8c-2.9,0-5.3,2.3-5.3,5.2v224c0,2.9,2.3,5.2,5.3,5.2h132.4c2.9,0,5.2-2.3,5.2-5.2v-224
		c0-2.9-2.3-5.2-5.2-5.2h-55.6c-0.7,4.2-1.5,8.4-2.2,12.6H81.3L80,20.8H24.5z"/>
	<linearGradient id="rect3_2_" gradientUnits="userSpaceOnUse" x1="25.97" y1="17.2623" x2="154.47" y2="240.2623">
		<stop  offset="0" style="stop-color:#6BAAF4"/>
		<stop  offset="1" style="stop-color:#4A90E2"/>
	</linearGradient>
	<path id="rect3" class="st5" d="M24.5,12.4c-2.9,0-5.3,2.4-5.3,5.3v224c0,2.9,2.4,5.2,5.2,5.2h132.4c2.9,0,5.2-2.4,5.2-5.2v-224
		c0-2.9-2.3-5.2-5.2-5.2h-52.1c-2,0-3.7,1.4-4.1,3.4c-0.4,2.1-0.7,4.2-1.1,6.3c-0.3,1.6-1.7,2.9-3.4,2.9H84.4
		c-1.8,0-3.2-1.3-3.4-3.1l-0.6-5.8c-0.2-2.1-2-3.7-4.1-3.7H24.5z"/>
</g>
<g id="cable">
	
		<linearGradient id="rect2_1_" gradientUnits="userSpaceOnUse" x1="-297.9723" y1="421.476" x2="-294.3843" y2="421.476" gradientTransform="matrix(2.8346 0 0 -2.8346 844.646 1236.2024)">
		<stop  offset="0" style="stop-color:#000000;stop-opacity:0"/>
		<stop  offset="0.5" style="stop-color:#000000"/>
		<stop  offset="1" style="stop-color:#000000"/>
	</linearGradient>
	<rect id="rect2" y="39.1" class="st6" width="10.2" height="4.7"/>
	<linearGradient id="rect2-2_1_" gradientUnits="userSpaceOnUse" x1="17.6471" y1="44.5313" x2="17.6471" y2="37.7196">
		<stop  offset="0" style="stop-color:#FAFAFA"/>
		<stop  offset="1" style="stop-color:#B1B3B4"/>
	</linearGradient>
	<rect id="rect2-2" x="16" y="37.2" class="st7" width="3.2" height="8.5"/>
	<rect id="rect2-2_2_" x="16" y="44.7" class="st8" width="3.2" height="1"/>
	<path id="rect2-2-4" sodipodi:nodetypes="sccsssss" d="M12.3,36.2l5.8,0c0,2.7,0,10.5,0,10.5h-5.8c-1.4,0-2.5-1.1-2.5-2.4v-5.8
		C9.8,37.3,10.9,36.3,12.3,36.2L12.3,36.2z"/>
	<path id="rect2-2-4_1_" sodipodi:nodetypes="sccsssss" class="st9" d="M12.3,36.2l5.8,0c0,2.2,0,8.7,0,8.7h-5.8
		c-1.4,0-2.5-0.9-2.5-2v-4.8C9.8,37.1,10.9,36.2,12.3,36.2L12.3,36.2z"/>
</g>
<g id="Screen">
	<path id="rect1_1_" class="st10" d="M36.3,43.4h109.5c3.4,0,6.2,2.8,6.2,6.2v78c0,3.4-2.8,6.2-6.2,6.2H36.3c-3.4,0-6.2-2.8-6.2-6.2
		v-78C30.1,46.2,32.9,43.4,36.3,43.4z"/>
	<path id="rect1" class="st11" d="M36.3,40.4h109.5c3.4,0,6.2,2.8,6.2,6.2v78c0,3.4-2.8,6.2-6.2,6.2H36.3c-3.4,0-6.2-2.8-6.2-6.2
		v-78C30.1,43.2,32.9,40.4,36.3,40.4z"/>
	<path id="screen-inner" class="st12" d="M142.1,124.3H40.9c-1.6,0-2.9-1.3-2.9-2.9V49.7c0-1.6,1.3-2.9,2.9-2.9h101.2
		c1.6,0,2.9,1.3,2.9,2.9v71.6C145,123,143.7,124.3,142.1,124.3z"/>
	<linearGradient id="screen-reflect_1_" gradientUnits="userSpaceOnUse" x1="134.4387" y1="126.9072" x2="40.0091" y2="36.3318">
		<stop  offset="0" style="stop-color:#67696B"/>
		<stop  offset="0.9997" style="stop-color:#B1B3B4;stop-opacity:0"/>
	</linearGradient>
	<path id="screen-reflect" inkscape:label="screen-inner" class="st13" d="M40.8,46.8h101.1c1.7,0,3.2,1.4,3.2,3.2L40.8,124.3
		c-1.7,0-3.2-1.4-3.2-3.2V50C37.6,48.3,39,46.8,40.8,46.8z"/>
	<rect id="rect5" x="26.6" y="46.8" class="st14" width="7.8" height="76.3"/>
	<rect id="rect5-8" x="24" y="60.4" class="st8" width="10.8" height="52.3"/>
	<rect id="rect5-8_1_" x="31.7" y="60.4" class="st9" width="3.1" height="52.3"/>
</g>
<g id="button-a">
	<path id="rect1-3-6_1_" class="st8" d="M121.7,142.2h28c1,0,1.9,0.8,1.9,1.9V171c0,1-0.8,1.9-1.9,1.9h-28c-1,0-1.9-0.8-1.9-1.9
		v-26.9C119.8,143.1,120.7,142.2,121.7,142.2z"/>
	<linearGradient id="rect1-3-6_2_" gradientUnits="userSpaceOnUse" x1="135.6954" y1="141.1228" x2="135.6954" y2="171.3371">
		<stop  offset="0" style="stop-color:#FAFAFA"/>
		<stop  offset="1" style="stop-color:#B1B3B4"/>
	</linearGradient>
	<path id="rect1-3-6" class="st15" d="M121.7,140.5h28c1,0,1.9,0.8,1.9,1.9v26.9c0,1-0.8,1.9-1.9,1.9h-28c-1,0-1.9-0.8-1.9-1.9
		v-26.9C119.8,141.3,120.7,140.5,121.7,140.5z"/>
	<ellipse id="path2" class="st8" cx="123.8" cy="144.1" rx="2.1" ry="2"/>
	<ellipse id="path2-3" class="st8" cx="147.5" cy="144.1" rx="2.1" ry="2"/>
	<ellipse id="path2-3-1" class="st8" cx="147.5" cy="167.6" rx="2.1" ry="2"/>
	<ellipse id="path2-3-1-2" class="st8" cx="123.8" cy="167.6" rx="2.1" ry="2"/>
	<circle id="button-a-bot" inkscape:label="button-a-bot" class="st10" cx="135.7" cy="155.8" r="10.9">
	</circle>
	<circle id="button-a-top" inkscape:label="button-a-top" class="st16" cx="135.7" cy="153.2" r="10.9">
	</circle>
</g>
<g id="button-sys">
	<path id="shadow" class="st8" d="M137.5,17.8h16.3c0.6,0,1.1,0.5,1.1,1.1v15.7c0,0.6-0.5,1.1-1.1,1.1h-16.3c-0.6,0-1.1-0.5-1.1-1.1
		V18.9C136.4,18.3,136.9,17.8,137.5,17.8z"/>
	<linearGradient id="front_1_" gradientUnits="userSpaceOnUse" x1="145.6426" y1="16.181" x2="145.6426" y2="33.4903">
		<stop  offset="0" style="stop-color:#FAFAFA"/>
		<stop  offset="1" style="stop-color:#B1B3B4"/>
	</linearGradient>
	<path id="front" class="st17" d="M137.5,16.4h16.3c0.6,0,1.1,0.5,1.1,1.1v15.7c0,0.6-0.5,1.1-1.1,1.1h-16.3c-0.6,0-1.1-0.5-1.1-1.1
		V17.5C136.4,16.9,136.9,16.4,137.5,16.4z"/>
	<ellipse id="path2-5" class="st8" cx="138.7" cy="18.4" rx="1.2" ry="1.2"/>
	<ellipse id="path2-3-9" class="st8" cx="152.6" cy="18.4" rx="1.2" ry="1.2"/>
	<ellipse id="path2-3-1-6" class="st8" cx="152.6" cy="32.2" rx="1.2" ry="1.2"/>
	<ellipse id="path2-3-1-2-6" class="st8" cx="138.7" cy="32.2" rx="1.2" ry="1.2"/>
	<circle id="button-sys-bot" inkscape:label="button-sys-bot" class="st10" cx="145.6" cy="25.3" r="6.4">
	</circle>
	<linearGradient id="button-sys-top_1_" gradientUnits="userSpaceOnUse" x1="140.2529" y1="23.3427" x2="151.8014" y2="23.3427">
		<stop  offset="0" style="stop-color:#6BAAF4"/>
		<stop  offset="1" style="stop-color:#4A90E2"/>
	</linearGradient>
	<circle id="button-sys-top" inkscape:label="button-sys-top" class="st18" cx="145.6" cy="23.3" r="6.4">
	</circle>
</g>
<g id="button-b">
	<path id="rect1-3-6-8_1_" class="st8" d="M121.7,185.3h28c1,0,1.9,0.8,1.9,1.9v26.9c0,1-0.8,1.9-1.9,1.9h-28c-1,0-1.9-0.8-1.9-1.9
		v-26.9C119.8,186.1,120.7,185.3,121.7,185.3z"/>
	<linearGradient id="rect1-3-6-8_2_" gradientUnits="userSpaceOnUse" x1="135.6954" y1="184.2388" x2="135.6954" y2="214.7807">
		<stop  offset="0" style="stop-color:#FAFAFA"/>
		<stop  offset="1" style="stop-color:#B1B3B4"/>
	</linearGradient>
	<path id="rect1-3-6-8" class="st19" d="M121.7,183.6h28c1,0,1.9,0.8,1.9,1.9v26.9c0,1-0.8,1.9-1.9,1.9h-28c-1,0-1.9-0.8-1.9-1.9
		v-26.9C119.8,184.4,120.7,183.6,121.7,183.6z"/>
	<ellipse id="path2-8" class="st8" cx="123.8" cy="187.1" rx="2.1" ry="2"/>
	<ellipse id="path2-3-12" class="st8" cx="147.5" cy="187.1" rx="2.1" ry="2"/>
	<ellipse id="path2-3-1-1" class="st8" cx="147.5" cy="210.7" rx="2.1" ry="2"/>
	<ellipse id="path2-3-1-2-4" class="st8" cx="123.8" cy="210.7" rx="2.1" ry="2"/>
	<circle id="button-b-bot" inkscape:label="button-b-bot" class="st10" cx="135.7" cy="198.9" r="10.9">
	</circle>
	<circle id="button-b-top" inkscape:label="button-b-top" class="st16" cx="135.7" cy="196.2" r="10.9">
	</circle>
</g>
<path id="pad-left" inkscape:label="pad-left" class="st20" d="M36.5,149.8c-6.9,7.1-10.8,16.6-10.8,26.5c0,9.8,3.8,19.2,10.6,26.3
	l17.3-17.3c-2.2-2.5-3.4-5.7-3.4-9c0-3.4,1.3-6.7,3.6-9.2L36.5,149.8z"/>
<path id="pad-up" inkscape:label="pad-up" class="st20" d="M90.9,148.2c-7.1-6.9-16.6-10.8-26.5-10.8c-9.8,0-19.2,3.8-26.3,10.6
	l17.3,17.3c2.5-2.2,5.7-3.4,9-3.4c3.4,0,6.7,1.3,9.2,3.6L90.9,148.2z"/>
<path id="pad-right" inkscape:label="pad-right" class="st20" d="M92.1,203c6.9-7.1,10.8-16.6,10.8-26.5c0-9.8-3.8-19.2-10.6-26.3
	L75,167.4c2.2,2.5,3.4,5.7,3.4,9c0,3.4-1.3,6.7-3.6,9.2L92.1,203z"/>
<path id="pad-down" inkscape:label="pad-down" class="st20" d="M37.5,204.2c7.1,6.9,16.6,10.8,26.5,10.8c9.8,0,19.2-3.8,26.3-10.6
	l-17.3-17.3c-2.5,2.2-5.7,3.4-9,3.4c-3.4,0-6.7-1.3-9.2-3.6L37.5,204.2z"/>
<g id="connection">
	<rect id="rect14" x="20.3" y="245.3" class="st16" width="5.1" height="5.5"/>
	<rect id="rect14-5" x="156.3" y="245.3" class="st16" width="5.1" height="5.5"/>
	<rect id="rect14-0-7" x="66.6" y="245.3" class="st16" width="16.6" height="5.5"/>
	<rect id="rect14-0-7-3" x="36.7" y="245.3" class="st16" width="16.6" height="5.5"/>
	<rect id="rect14-0-7-6" x="98.2" y="245.3" class="st16" width="16.6" height="5.5"/>
	<rect id="rect14-0-7-5" x="128.2" y="245.3" class="st16" width="16.6" height="5.5"/>
	<linearGradient id="path11_1_" gradientUnits="userSpaceOnUse" x1="30.939" y1="250.2664" x2="30.939" y2="223.0977">
		<stop  offset="0" style="stop-color:#FAFAFA"/>
		<stop  offset="1" style="stop-color:#B1B3B4"/>
	</linearGradient>
	<path id="path11" class="st21" d="M30.9,223.9c-4.5,0-8.1,3.6-8.1,8.1c0,7,0,12.7,0,18.9h2.5l0.8-3h9.3l0.9,3H39l0-18.9
		C39,227.5,35.4,223.9,30.9,223.9L30.9,223.9z"/>
	<linearGradient id="path11-9_1_" gradientUnits="userSpaceOnUse" x1="59.3629" y1="250.2664" x2="59.3629" y2="223.0977">
		<stop  offset="0" style="stop-color:#FAFAFA"/>
		<stop  offset="1" style="stop-color:#B1B3B4"/>
	</linearGradient>
	<path id="path11-9" class="st22" d="M59.4,223.9c-4.5,0-8.1,3.6-8.1,8.1c0,7,0,12.7,0,18.9h2.5l0.8-3h9.3l0.9,3h2.6l0-18.9
		C67.4,227.5,63.8,223.9,59.4,223.9L59.4,223.9z"/>
	<linearGradient id="path11-7_1_" gradientUnits="userSpaceOnUse" x1="90.7304" y1="250.2664" x2="90.7304" y2="223.0977">
		<stop  offset="0" style="stop-color:#FAFAFA"/>
		<stop  offset="1" style="stop-color:#B1B3B4"/>
	</linearGradient>
	<path id="path11-7" class="st23" d="M90.7,223.9c-4.5,0-8.1,3.6-8.1,8.1c0,7,0,12.7,0,18.9h2.5l0.8-3h9.3l0.9,3h2.6l0-18.9
		C98.8,227.5,95.2,223.9,90.7,223.9L90.7,223.9z"/>
	<linearGradient id="path11-5_1_" gradientUnits="userSpaceOnUse" x1="122.0979" y1="250.2664" x2="122.0979" y2="223.0977">
		<stop  offset="0" style="stop-color:#FAFAFA"/>
		<stop  offset="1" style="stop-color:#B1B3B4"/>
	</linearGradient>
	<path id="path11-5" class="st24" d="M122.1,223.9c-4.5,0-8.1,3.6-8.1,8.1c0,7,0,12.7,0,18.9h2.5l0.8-3h9.3l0.9,3h2.6l0-18.9
		C130.2,227.5,126.6,223.9,122.1,223.9L122.1,223.9z"/>
	<linearGradient id="path11-78_1_" gradientUnits="userSpaceOnUse" x1="150.5217" y1="250.2664" x2="150.5217" y2="223.0977">
		<stop  offset="0" style="stop-color:#FAFAFA"/>
		<stop  offset="1" style="stop-color:#B1B3B4"/>
	</linearGradient>
	<path id="path11-78" class="st25" d="M150.5,223.9c-4.5,0-8.1,3.6-8.1,8.1c0,7,0,12.7,0,18.9h2.5l0.8-3h9.3l0.9,3h2.6l0-18.9
		C158.6,227.5,155,223.9,150.5,223.9L150.5,223.9z"/>
	<linearGradient id="rect12_1_" gradientUnits="userSpaceOnUse" x1="160.6279" y1="250.2664" x2="160.6279" y2="223.0977">
		<stop  offset="0" style="stop-color:#FAFAFA"/>
		<stop  offset="1" style="stop-color:#B1B3B4"/>
	</linearGradient>
	<rect id="rect12" x="159.1" y="234.4" class="st26" width="3" height="16.5"/>
	<linearGradient id="rect12-9_1_" gradientUnits="userSpaceOnUse" x1="137.7817" y1="250.2664" x2="137.7817" y2="223.0977">
		<stop  offset="0" style="stop-color:#FAFAFA"/>
		<stop  offset="1" style="stop-color:#B1B3B4"/>
	</linearGradient>
	<rect id="rect12-9" x="136.6" y="234.4" class="st27" width="2.5" height="16.5"/>
	<linearGradient id="rect12-0_1_" gradientUnits="userSpaceOnUse" x1="134.838" y1="250.2664" x2="134.838" y2="223.0977">
		<stop  offset="0" style="stop-color:#FAFAFA"/>
		<stop  offset="1" style="stop-color:#B1B3B4"/>
	</linearGradient>
	<rect id="rect12-0" x="133.6" y="234.4" class="st28" width="2.5" height="16.5"/>
	<linearGradient id="rect12-5_1_" gradientUnits="userSpaceOnUse" x1="131.8944" y1="250.2664" x2="131.8944" y2="223.0977">
		<stop  offset="0" style="stop-color:#FAFAFA"/>
		<stop  offset="1" style="stop-color:#B1B3B4"/>
	</linearGradient>
	<rect id="rect12-5" x="130.7" y="234.4" class="st29" width="2.5" height="16.5"/>
	<linearGradient id="rect12-91_1_" gradientUnits="userSpaceOnUse" x1="140.7253" y1="250.2664" x2="140.7253" y2="223.0977">
		<stop  offset="0" style="stop-color:#FAFAFA"/>
		<stop  offset="1" style="stop-color:#B1B3B4"/>
	</linearGradient>
	<rect id="rect12-91" x="139.5" y="234.4" class="st30" width="2.5" height="16.5"/>
	<linearGradient id="rect12-2_1_" gradientUnits="userSpaceOnUse" x1="112.3015" y1="250.2664" x2="112.3015" y2="223.0977">
		<stop  offset="0" style="stop-color:#FAFAFA"/>
		<stop  offset="1" style="stop-color:#B1B3B4"/>
	</linearGradient>
	<rect id="rect12-2" x="111.1" y="234.4" class="st31" width="2.5" height="16.5"/>
	<linearGradient id="rect12-00_1_" gradientUnits="userSpaceOnUse" x1="109.3578" y1="250.2664" x2="109.3578" y2="223.0977">
		<stop  offset="0" style="stop-color:#FAFAFA"/>
		<stop  offset="1" style="stop-color:#B1B3B4"/>
	</linearGradient>
	<rect id="rect12-00" x="108.1" y="234.4" class="st32" width="2.5" height="16.5"/>
	<linearGradient id="rect12-59_1_" gradientUnits="userSpaceOnUse" x1="106.4142" y1="250.2664" x2="106.4142" y2="223.0977">
		<stop  offset="0" style="stop-color:#FAFAFA"/>
		<stop  offset="1" style="stop-color:#B1B3B4"/>
	</linearGradient>
	<rect id="rect12-59" x="105.2" y="234.4" class="st33" width="2.5" height="16.5"/>
	<linearGradient id="rect12-50_1_" gradientUnits="userSpaceOnUse" x1="103.4706" y1="250.2664" x2="103.4706" y2="223.0977">
		<stop  offset="0" style="stop-color:#FAFAFA"/>
		<stop  offset="1" style="stop-color:#B1B3B4"/>
	</linearGradient>
	<rect id="rect12-50" x="102.2" y="234.4" class="st34" width="2.5" height="16.5"/>
	<linearGradient id="rect12-8_1_" gradientUnits="userSpaceOnUse" x1="100.5269" y1="250.2664" x2="100.5269" y2="223.0977">
		<stop  offset="0" style="stop-color:#FAFAFA"/>
		<stop  offset="1" style="stop-color:#B1B3B4"/>
	</linearGradient>
	<rect id="rect12-8" x="99.3" y="234.4" class="st35" width="2.5" height="16.5"/>
	<linearGradient id="rect12-01_1_" gradientUnits="userSpaceOnUse" x1="80.9339" y1="250.2664" x2="80.9339" y2="223.0977">
		<stop  offset="0" style="stop-color:#FAFAFA"/>
		<stop  offset="1" style="stop-color:#B1B3B4"/>
	</linearGradient>
	<rect id="rect12-01" x="79.7" y="234.4" class="st36" width="2.5" height="16.5"/>
	<linearGradient id="rect12-502_1_" gradientUnits="userSpaceOnUse" x1="77.9903" y1="250.2664" x2="77.9903" y2="223.0977">
		<stop  offset="0" style="stop-color:#FAFAFA"/>
		<stop  offset="1" style="stop-color:#B1B3B4"/>
	</linearGradient>
	<rect id="rect12-502" x="76.8" y="234.4" class="st37" width="2.5" height="16.5"/>
	<linearGradient id="rect12-57_1_" gradientUnits="userSpaceOnUse" x1="75.0467" y1="250.2664" x2="75.0467" y2="223.0977">
		<stop  offset="0" style="stop-color:#FAFAFA"/>
		<stop  offset="1" style="stop-color:#B1B3B4"/>
	</linearGradient>
	<rect id="rect12-57" x="73.8" y="234.4" class="st38" width="2.5" height="16.5"/>
	<linearGradient id="rect12-3_1_" gradientUnits="userSpaceOnUse" x1="72.103" y1="250.2664" x2="72.103" y2="223.0977">
		<stop  offset="0" style="stop-color:#FAFAFA"/>
		<stop  offset="1" style="stop-color:#B1B3B4"/>
	</linearGradient>
	<rect id="rect12-3" x="70.9" y="234.4" class="st39" width="2.5" height="16.5"/>
	<linearGradient id="rect12-4_1_" gradientUnits="userSpaceOnUse" x1="69.1594" y1="250.2664" x2="69.1594" y2="223.0977">
		<stop  offset="0" style="stop-color:#FAFAFA"/>
		<stop  offset="1" style="stop-color:#B1B3B4"/>
	</linearGradient>
	<rect id="rect12-4" x="67.9" y="234.4" class="st40" width="2.5" height="16.5"/>
	<linearGradient id="rect12-31_1_" gradientUnits="userSpaceOnUse" x1="49.5665" y1="250.2664" x2="49.5665" y2="223.0977">
		<stop  offset="0" style="stop-color:#FAFAFA"/>
		<stop  offset="1" style="stop-color:#B1B3B4"/>
	</linearGradient>
	<rect id="rect12-31" x="48.3" y="234.4" class="st41" width="2.5" height="16.5"/>
	<linearGradient id="rect12-5023_1_" gradientUnits="userSpaceOnUse" x1="46.6229" y1="250.2664" x2="46.6229" y2="223.0977">
		<stop  offset="0" style="stop-color:#FAFAFA"/>
		<stop  offset="1" style="stop-color:#B1B3B4"/>
	</linearGradient>
	<rect id="rect12-5023" x="45.4" y="234.4" class="st42" width="2.5" height="16.5"/>
	<linearGradient id="rect12-010_1_" gradientUnits="userSpaceOnUse" x1="43.6792" y1="250.2664" x2="43.6792" y2="223.0977">
		<stop  offset="0" style="stop-color:#FAFAFA"/>
		<stop  offset="1" style="stop-color:#B1B3B4"/>
	</linearGradient>
	<rect id="rect12-010" x="42.4" y="234.4" class="st43" width="2.5" height="16.5"/>
	<linearGradient id="rect12-82_1_" gradientUnits="userSpaceOnUse" x1="40.7355" y1="250.2664" x2="40.7355" y2="223.0977">
		<stop  offset="0" style="stop-color:#FAFAFA"/>
		<stop  offset="1" style="stop-color:#B1B3B4"/>
	</linearGradient>
	<rect id="rect12-82" x="39.5" y="234.4" class="st44" width="2.5" height="16.5"/>
	<linearGradient id="rect12-915_1_" gradientUnits="userSpaceOnUse" x1="20.8083" y1="250.2664" x2="20.8083" y2="223.0977">
		<stop  offset="0" style="stop-color:#FAFAFA"/>
		<stop  offset="1" style="stop-color:#B1B3B4"/>
	</linearGradient>
	<rect id="rect12-915" x="19.3" y="234.4" class="st45" width="3.1" height="16.5"/>
	<circle id="path12" class="st8" cx="30.9" cy="232.3" r="6.6"/>
	<circle id="path12-2" class="st8" cx="59.4" cy="232.3" r="6.6"/>
	<circle id="path12-7" class="st8" cx="90.7" cy="232.3" r="6.6"/>
	<circle id="path12-4" class="st8" cx="122.1" cy="232.3" r="6.6"/>
	<circle id="path12-23" class="st8" cx="150.5" cy="232.3" r="6.6"/>
	<path class="st14" d="M37.6,232.3c0,0.2,0,0.4,0,0.6c-0.3-3.4-3.1-6.1-6.6-6.1s-6.3,2.7-6.6,6.1c0-0.2,0-0.4,0-0.6
		c0-3.7,3-6.7,6.6-6.7S37.6,228.6,37.6,232.3z"/>
	<path class="st14" d="M66,232.3c0,0.2,0,0.4,0,0.6c-0.3-3.4-3.1-6.1-6.6-6.1c-3.5,0-6.3,2.7-6.6,6.1c0-0.2,0-0.4,0-0.6
		c0-3.7,3-6.7,6.6-6.7C63,225.6,66,228.6,66,232.3z"/>
	<path class="st14" d="M97.4,232.3c0,0.2,0,0.4,0,0.6c-0.3-3.4-3.1-6.1-6.6-6.1c-3.5,0-6.3,2.7-6.6,6.1c0-0.2,0-0.4,0-0.6
		c0-3.7,3-6.7,6.6-6.7C94.4,225.6,97.4,228.6,97.4,232.3z"/>
	<path class="st14" d="M128.7,232.3c0,0.2,0,0.4,0,0.6c-0.3-3.4-3.1-6.1-6.6-6.1c-3.5,0-6.3,2.7-6.6,6.1c0-0.2,0-0.4,0-0.6
		c0-3.7,3-6.7,6.6-6.7C125.8,225.6,128.7,228.6,128.7,232.3z"/>
	<path class="st14" d="M157.2,232.3c0,0.2,0,0.4,0,0.6c-0.3-3.4-3.1-6.1-6.6-6.1c-3.5,0-6.3,2.7-6.6,6.1c0-0.2,0-0.4,0-0.6
		c0-3.7,3-6.7,6.6-6.7C154.2,225.6,157.2,228.6,157.2,232.3z"/>
</g>
<text transform="matrix(1 0 0 1 104.5744 148.2085)" class="st46 st47 st48">A</text>
<text transform="matrix(1 0 0 1 108.1418 28.5307)" class="st46 st47 st49">SYSTÈME</text>
<text transform="matrix(1 0 0 1 104.3547 219.7241)" class="st46 st47 st48">B</text>
<g id="Arrow-A">
	<path id="path135" class="st46" d="M115.4,157.9l-1.5,0.9V157L115.4,157.9z"/>
	<path class="st50" d="M113.9,157.9c-2.8,0-5.1-2.2-5.1-5"/>
</g>
<g id="Arrow-B">
	<path id="path135-3" class="st46" d="M115.4,196.8l-1.5,0.9v-1.8L115.4,196.8z"/>
	<path class="st50" d="M108.9,201.9c0-2.8,2.2-5.1,5-5.1"/>
</g>
<g id="Arrow-Sys">
	<path class="st51" d="M126.8,22.7c0.7-2.7,3.4-4.4,6.1-3.7"/>
	<g>
		<polygon class="st46" points="132.4,19.4 134.6,19.4 132.7,18.3 		"/>
	</g>
</g>
</svg>
