<svg width="29" height="29" viewBox="0 0 29 29" fill="none" xmlns="http://www.w3.org/2000/svg">
<path d="M14.1675 28.4044C21.8987 28.4044 28.1661 22.137 28.1661 14.4058C28.1661 6.67463 21.8987 0.407227 14.1675 0.407227C6.43632 0.407227 0.168945 6.67463 0.168945 14.4058C0.168945 22.137 6.43632 28.4044 14.1675 28.4044Z" fill="#05A8AA"/>
<path d="M14.2731 22.5457C18.1926 22.5457 21.4402 19.7909 22.2465 16.1401H6.27734C7.08364 19.8133 10.3536 22.5457 14.2507 22.5457H14.2731Z" fill="#5158BB"/>
<path d="M14.2732 6.19629C10.3537 6.19629 7.1061 8.95117 6.2998 12.6019H22.2689C21.4626 8.92877 18.1927 6.19629 14.2956 6.19629H14.2732Z" fill="#5158BB"/>
<path d="M6.29971 16.1164H22.2689C22.4032 15.5565 22.4704 14.9517 22.4704 14.347C22.4704 13.7423 22.4032 13.16 22.2689 12.5776H6.29971C6.16533 13.1376 6.09814 13.7423 6.09814 14.347C6.09814 14.9517 6.16533 15.5341 6.29971 16.1164Z" fill="#043565"/>
</svg>
