<svg width="21" height="26" viewBox="0 0 21 26" fill="none" xmlns="http://www.w3.org/2000/svg">
<path d="M13.0906 1.9873H4.17398C3.58277 1.9873 3.01578 2.22216 2.59773 2.64021C2.17968 3.05826 1.94482 3.62525 1.94482 4.21646V22.0497C1.94482 22.641 2.17968 23.2079 2.59773 23.626C3.01578 24.044 3.58277 24.2789 4.17398 24.2789H17.5489C18.1402 24.2789 18.7071 24.044 19.1252 23.626C19.5432 23.2079 19.7781 22.641 19.7781 22.0497V8.67478L13.0906 1.9873Z" fill="white" stroke="white" stroke-width="2.22916" stroke-linecap="round" stroke-linejoin="round"/>
<path d="M13.0908 1.9873V8.67478H19.7783" fill="white"/>
<path d="M13.0908 1.9873V8.67478H19.7783" stroke="white" stroke-width="2.22916" stroke-linecap="round" stroke-linejoin="round"/>
<path d="M15.319 14.2466H6.40234" stroke="#05A8AA" stroke-width="2.22916" stroke-linecap="round" stroke-linejoin="round"/>
<path d="M15.319 18.7056H6.40234" stroke="#05A8AA" stroke-width="2.22916" stroke-linecap="round" stroke-linejoin="round"/>
<path d="M10.8598 9.78931H8.63083H6.40186" fill="white"/>
<path d="M10.8598 9.78931H8.63083H6.40186" stroke="#05A8AA" stroke-width="2.22916" stroke-linecap="round" stroke-linejoin="round"/>
</svg>
